<svg xmlns="http://www.w3.org/2000/svg" viewBox="0 0 20 20"><defs><style>.ask-icon{fill:#231f20;}</style></defs><title>ask</title><path class="ask-icon" d="M17,19.2,12.345,16H3V2H17ZM4,15h8.655L16,17.3V3H4Zm5.986-1.935a.65.65,0,1,1,.65-.65A.65.65,0,0,1,9.986,13.065Zm.514-2.5h-1a1.917,1.917,0,0,1,1.076-1.657,1.6,1.6,0,0,0,.924-1.53A1.417,1.417,0,0,0,10,6.065,1.417,1.417,0,0,0,8.5,7.378h-1A2.414,2.414,0,0,1,10,5.065a2.414,2.414,0,0,1,2.5,2.313,2.564,2.564,0,0,1-1.359,2.355C10.7,10.037,10.5,10.187,10.5,10.565Z"/></svg>