<svg xmlns="http://www.w3.org/2000/svg" viewBox="0 0 20 20"><defs><style>.help-icon{fill:#231f20;}</style></defs><title>help</title><path class="help-icon" d="M10,18a7.977,7.977,0,0,1-5.657-2.339h0a8.009,8.009,0,0,1,0-11.314h0A8,8,0,1,1,10,18ZM5.416,15.291a7.013,7.013,0,0,0,9.168,0l-2.131-2.13a4.093,4.093,0,0,1-4.906,0Zm7.744-2.837,2.131,2.13a7.011,7.011,0,0,0,0-9.167L13.16,7.547a4,4,0,0,1,0,4.907ZM4.709,5.416a7.011,7.011,0,0,0,0,9.167l2.131-2.13a4,4,0,0,1,0-4.907ZM10,7a2.979,2.979,0,0,0-2.121.878h0a3,3,0,0,0,0,4.243,3.073,3.073,0,0,0,4.242,0A3,3,0,0,0,10,7Zm0-1a3.968,3.968,0,0,1,2.453.839l2.131-2.13a7.013,7.013,0,0,0-9.168,0l2.131,2.13A3.968,3.968,0,0,1,10,6Z"/></svg>